# xmcd
#
# Track frame offsets:
#	150
#	19727
#	40466
#	57069
#	75611
#	100198
#	115263
#	136864
#	163171
#	195383
#	214313
#	239345
#
# Disc length: 3408 seconds
#
# Revision: 1
# Processed by: cddbd v1.5.2PL0 Copyright (c) Steve Scherf et al.
# Submitted via: EasyCDDAExtractor 2011.0.0.0
#
DISCID=9e0d4e0c
DTITLE=Various Artist - 찬양과 경배 - 축복 1
DYEAR=2001
DGENRE=CCM
TTITLE0=옹기장이 - 주의강이 여기에, 주의 능력 보이소서
TTITLE1=러브 - 당신은 사랑받기 위해 태어난 사람
TTITLE2=좋은씨앗 - 내일 일은 내일 염려하라
TTITLE3=김수지 - 행복
TTITLE4=소향 - 선생님
TTITLE5=박정현 - Amazing Grace
TTITLE6=송정미 외 - 주님 사랑 온 누리에
TTITLE7=박종호 외 - 내 맘에 한 노래 있어
TTITLE8=시인과 촌장 - 뿌리
TTITLE9=이태원 - 내 주는 강한 성이요
TTITLE10=김조한 - Jesus Loves Me
TTITLE11=줄리어드트리오 - 오 신실하신 주
EXTD=
EXTT0=
EXTT1=
EXTT2=
EXTT3=
EXTT4=
EXTT5=
EXTT6=
EXTT7=
EXTT8=
EXTT9=
EXTT10=
EXTT11=
PLAYORDER=
